<svg xmlns="http://www.w3.org/2000/svg" width="24" height="24" viewBox="0 0 24 24">
  <g id="add_icon" transform="translate(-879 -418)">
    <rect id="Rectangle_6430" data-name="Rectangle 6430" width="24" height="24" transform="translate(879 418)" fill="none"/>
    <path id="Path_36804" data-name="Path 36804" d="M2.981-5.048H15.264a.814.814,0,0,0,.6-.258.845.845,0,0,0,.253-.614.831.831,0,0,0-.253-.609.821.821,0,0,0-.6-.253H2.981a.835.835,0,0,0-.6.253.824.824,0,0,0-.258.609.838.838,0,0,0,.258.614A.828.828,0,0,0,2.981-5.048ZM9.127,1.08a.816.816,0,0,0,.6-.253A.838.838,0,0,0,9.981.217V-12.057a.843.843,0,0,0-.249-.6.809.809,0,0,0-.6-.258.834.834,0,0,0-.618.258.835.835,0,0,0-.253.6V.217a.831.831,0,0,0,.253.609A.841.841,0,0,0,9.127,1.08Z" transform="translate(881.882 435.92)" fill="#707070"/>
  </g>
</svg>
