<?xml version="1.0" standalone="no"?>
<!DOCTYPE svg PUBLIC "-//W3C//DTD SVG 20010904//EN"
 "http://www.w3.org/TR/2001/REC-SVG-20010904/DTD/svg10.dtd">
<svg version="1.0" xmlns="http://www.w3.org/2000/svg"
 width="224.000000pt" height="224.000000pt" viewBox="0 0 224.000000 224.000000"
 preserveAspectRatio="xMidYMid meet">

<g transform="translate(0.000000,224.000000) scale(0.100000,-0.100000)"
fill="#000000" stroke="none">
<path d="M1208 2133 c7 -3 16 -2 19 1 4 3 -2 6 -13 5 -11 0 -14 -3 -6 -6z"/>
<path d="M1530 2056 c0 -2 7 -7 16 -10 8 -3 12 -2 9 4 -6 10 -25 14 -25 6z"/>
<path d="M1027 1960 c-147 -37 -245 -158 -255 -312 -11 -175 88 -310 258 -354
70 -18 123 -15 205 13 72 23 164 118 194 198 62 164 -15 352 -173 430 -60 29
-166 41 -229 25z"/>
<path d="M1700 1966 c0 -2 8 -10 18 -17 15 -13 16 -12 3 4 -13 16 -21 21 -21
13z"/>
<path d="M369 1823 c-13 -16 -12 -17 4 -4 9 7 17 15 17 17 0 8 -8 3 -21 -13z"/>
<path d="M1870 1815 c13 -14 26 -25 28 -25 3 0 -5 11 -18 25 -13 14 -26 25
-28 25 -3 0 5 -11 18 -25z"/>
<path d="M740 1246 c-125 -35 -159 -80 -201 -261 -16 -71 -22 -138 -26 -317
l-6 -228 282 0 c154 0 281 3 281 7 0 4 -20 68 -44 143 -76 232 -164 512 -187
593 -24 84 -23 84 -99 63z"/>
<path d="M1427 1253 c-3 -5 -37 -111 -76 -238 -39 -126 -95 -304 -125 -395
-29 -91 -50 -168 -47 -173 4 -4 131 -6 282 -5 l274 3 -3 180 c-4 253 -24 390
-74 508 -24 55 -73 90 -160 113 -62 16 -65 16 -71 7z"/>
<path d="M1869 423 c-13 -16 -12 -17 4 -4 16 13 21 21 13 21 -2 0 -10 -8 -17
-17z"/>
<path d="M1794 348 l-19 -23 23 19 c21 18 27 26 19 26 -2 0 -12 -10 -23 -22z"/>
</g>
</svg>
