<?xml version="1.0" standalone="no"?>
<!DOCTYPE svg PUBLIC "-//W3C//DTD SVG 20010904//EN"
 "http://www.w3.org/TR/2001/REC-SVG-20010904/DTD/svg10.dtd">
<svg version="1.0" xmlns="http://www.w3.org/2000/svg"
 width="64.000000pt" height="64.000000pt" viewBox="0 0 64.000000 64.000000"
 preserveAspectRatio="xMidYMid meet">

<g transform="translate(0.000000,64.000000) scale(0.100000,-0.100000)"
fill="#000000" stroke="none">
<path d="M352 620 c-82 -37 -125 -109 -120 -197 l3 -53 -118 -118 -118 -118 3
-65 3 -64 64 -3 c71 -3 101 13 101 55 0 18 6 23 24 23 18 0 25 7 30 31 3 18
10 28 16 24 15 -9 40 14 40 36 0 13 7 19 23 19 13 0 33 11 46 23 19 21 29 23
71 19 85 -8 155 32 195 112 30 60 32 116 6 171 -49 106 -166 152 -269 105z
m175 -46 c53 -40 68 -71 68 -139 0 -71 -17 -103 -76 -143 -28 -19 -44 -23
-101 -20 -62 2 -70 0 -96 -25 -16 -16 -39 -27 -55 -27 -22 0 -27 -4 -27 -25 0
-15 -5 -25 -12 -24 -29 3 -37 -2 -40 -28 -2 -22 -9 -29 -30 -31 -22 -3 -27 -9
-30 -35 -3 -30 -6 -32 -46 -35 l-42 -3 0 38 c0 35 9 47 117 155 l118 118 -3
64 c-4 87 29 146 98 175 38 16 127 7 157 -15z"/>
<path d="M445 520 c-41 -46 29 -116 75 -75 24 22 26 58 4 79 -21 22 -57 20
-79 -4z m55 -35 c0 -8 -7 -15 -15 -15 -8 0 -15 7 -15 15 0 8 7 15 15 15 8 0
15 -7 15 -15z"/>
</g>
</svg>
