<svg xmlns="http://www.w3.org/2000/svg" width="218.584" height="52.21" viewBox="0 0 218.584 52.21">
  <g id="inadev_new_logo" transform="translate(-82.808 -38.106)">
    <path id="Path_21098" data-name="Path 21098" d="M167.689,38.107a4.054,4.054,0,0,0,1.418.128,94.455,94.455,0,0,1,11.835,1.286,48.878,48.878,0,0,1,12.85,4.047,15.371,15.371,0,0,1,6.389,5.125,7.92,7.92,0,0,1,1.488,3.169,9.734,9.734,0,0,1-.406,5.248A24.146,24.146,0,0,1,196,65.264a60.879,60.879,0,0,1-4.807,4.617.294.294,0,0,0-.123.384,128.36,128.36,0,0,0,7.319,17.506,26.406,26.406,0,0,0,1.432,2.344c-.1.106-.21.065-.306.065-1.88,0-3.76,0-5.64.009a.437.437,0,0,1-.491-.345q-2.75-7.637-5.518-15.267a6.83,6.83,0,0,1-.441-1.223c-.047-.292-.177-.3-.406-.126q-2.761,2.071-5.662,3.943c-2.708,1.741-5.436,3.452-8.267,4.986-.841.456-1.663.948-2.52,1.373a.38.38,0,0,0-.219.24,16.16,16.16,0,0,0-.993,4.469,5.757,5.757,0,0,0,.207,1.666c.051.2.041.281-.19.28q-3.474-.008-6.944-.007a.315.315,0,0,1-.094-.028.113.113,0,0,1,.026-.147,54.8,54.8,0,0,0,6.223-9.781A165.187,165.187,0,0,0,178,57.827c.236-.7.424-1.418.625-2.13a3.343,3.343,0,0,0-.169-2.284c-.044-.1-.126-.2-.076-.354h.753c1.97,0,3.939.01,5.909-.009a.513.513,0,0,1,.606.44q1.556,5.269,3.283,10.486c.04.119.081.238.118.346a.11.11,0,0,0,.143-.054,17.512,17.512,0,0,0,3.006-6.611,9.336,9.336,0,0,0,.07-3.471,6.715,6.715,0,0,0-2.182-3.483,11.486,11.486,0,0,0-4.871-2.623,63.567,63.567,0,0,0-9.39-2c-2.851-.467-5.722-.772-8.6-.97a90.564,90.564,0,0,0-10.266-.2c-2.31.1-4.621.182-6.932.27-1.914.073-3.825.172-5.73.408-1.177.146-2.37.16-3.555.246-1.39.1-2.76.354-4.138.552-1.491.214-3,.317-4.482.583-2.577.461-5.129,1.045-7.689,1.581-3.21.674-6.434,1.282-9.621,2.063-2.52.618-4.964,1.481-7.422,2.3-4.006,1.337-8.063,2.522-12.022,4-3.875,1.446-7.725,2.957-11.452,4.761a2.691,2.691,0,0,1-1.108.378A3.4,3.4,0,0,1,83.8,61.3a94.139,94.139,0,0,1,8.657-5.09c2.523-1.243,4.99-2.6,7.54-3.786,2.1-.978,4.239-1.866,6.376-2.758,2.746-1.146,5.538-2.172,8.348-3.148,2.282-.792,4.564-1.583,6.887-2.246,2.014-.575,4.056-1.048,6.1-1.527,2.564-.6,5.12-1.233,7.706-1.74,2.125-.417,4.262-.768,6.4-1.123a30.3,30.3,0,0,1,3.775-.568,10.231,10.231,0,0,0,1.364-.1,17.154,17.154,0,0,1,2.838-.353,12.777,12.777,0,0,0,1.362-.108c1.356-.155,2.7-.459,4.067-.48,2.185-.034,4.371-.052,6.556-.1a4.821,4.821,0,0,0,1.394-.07Zm13.68,18.9c-3.48,8.49-7.1,16.821-10.456,25.269a1.233,1.233,0,0,0,.339-.206c1.448-1.176,2.918-2.326,4.338-3.535a103.722,103.722,0,0,0,9.839-9.384.593.593,0,0,0,.12-.711q-1.327-3.589-2.631-7.186Z" fill="#f16632"/>
    <path id="Path_21099" data-name="Path 21099" d="M1649.19,223.065c.621,0,1.169-.009,1.716,0,3.826.074,7.634-.217,11.445-.5a36.21,36.21,0,0,1,7.152.024,15.039,15.039,0,0,1,13.254,12.029,24.479,24.479,0,0,1-.96,14.175,17.37,17.37,0,0,1-12.5,10.955,27.3,27.3,0,0,1-7.646.7c-4.075-.1-8.147-.335-12.226-.254-.051,0-.1,0-.2-.009.12-.226.241-.424.336-.636a9.464,9.464,0,0,0,.673-2.857c.256-2.237.275-4.486.327-6.734.089-3.835.06-7.671.055-11.507,0-3.45-.036-6.9-.23-10.347a18.4,18.4,0,0,0-.433-3.224A4.731,4.731,0,0,0,1649.19,223.065Zm6.435,18.288c0,3.451-.05,6.9.049,10.353.033,1.162.066,2.323.167,3.482a2.423,2.423,0,0,0,2.205,2.488,22.854,22.854,0,0,0,7.815.072,12.485,12.485,0,0,0,10.449-8.814,23.7,23.7,0,0,0,.434-13,13.588,13.588,0,0,0-12.86-10.943,27.543,27.543,0,0,0-7.4.373c-.326.059-.459.167-.5.517a70.229,70.229,0,0,0-.351,7.23c-.037,2.748-.009,5.5-.009,8.246Z" transform="translate(-1446.176 -170.147)" fill="#636060"/>
    <path id="Path_21100" data-name="Path 21100" d="M712.064,261.4c0-.948,0-1.875,0-2.8q.011-4.872.024-9.743c.006-1.943.047-3.887.019-5.83-.036-2.6-.039-5.213-.291-7.81a12.59,12.59,0,0,0-.585-2.96,4.928,4.928,0,0,0-.621-1.214h5.4c-1.1,1.96-1.08,4.159-1.2,6.318-.192,3.408-.185,6.821-.188,10.233q-.011,10.147-.019,20.294c0,.346-.08.445-.433.436-1.022-.026-2.046-.013-3.069-.005a.408.408,0,0,1-.4-.214c-3.726-5.728-7.667-11.31-11.53-16.944q-5.21-7.6-10.4-15.214c-.077-.113-.16-.22-.264-.362a.641.641,0,0,0-.056.4c.04,5.062.067,10.124.131,15.186.033,2.657.016,5.316.151,7.971a28.833,28.833,0,0,0,.9,6.971,7.529,7.529,0,0,0,.747,1.756c.128.211.141.294-.159.293-2.122-.01-4.245-.005-6.425-.005a7.772,7.772,0,0,0,1-2.565,37,37,0,0,0,.76-5.69c.242-3.352.33-6.711.349-10.071.012-2.186.05-4.373.019-6.559-.034-2.464-.056-4.93-.287-7.388a11.422,11.422,0,0,0-.673-3.172,4.052,4.052,0,0,0-1.144-1.666c.165-.007.284-.017.4-.017,1.79,0,3.581.015,5.371-.009a2.713,2.713,0,0,1,1.738.589,10.559,10.559,0,0,1,2.255,2.639c5.356,7.955,10.5,16.052,16.03,23.889.722,1.023,1.454,2.038,2.185,3.054C711.87,261.253,711.9,261.355,712.064,261.4Z" transform="translate(-554.876 -178.097)" fill="#636060"/>
    <path id="Path_21101" data-name="Path 21101" d="M2186.652,244.815a8.047,8.047,0,0,1-2.7,2.053,12.858,12.858,0,0,1-4.324,1.075,50.783,50.783,0,0,1-7.007.21c-.329-.011-.4.088-.394.4.029,3.2.018,6.393.066,9.589a39.955,39.955,0,0,0,.365,5.389c.084.562.08.562.647.562,2.453,0,4.909.045,7.356-.19a14.976,14.976,0,0,0,5.752-1.449,8.153,8.153,0,0,0,2.46-1.985c.073-.088.147-.176.222-.262.005-.007.024,0,.064,0q-.286,1.7-.57,3.389c-.115.679-.248,1.355-.344,2.039-.034.245-.146.311-.364.346a33.25,33.25,0,0,1-5.537.387q-2.282,0-4.563-.046c-3.9-.071-7.8-.045-11.7-.051h-.229c1.08-1.953,1.091-4.088,1.206-6.195.178-3.268.142-6.541.166-9.813.028-3.657,0-7.314-.043-10.969a56.3,56.3,0,0,0-.363-7,7,7,0,0,0-1-3.155h.4c2.353,0,4.706.008,7.06-.017,3.31-.035,6.619-.1,9.928-.145.869-.011,1.738.038,2.607.04.222,0,.269.078.285.282.133,1.681.277,3.361.42,5.067-.044-.038-.087-.058-.1-.091a4.6,4.6,0,0,0-3.617-2.522,26.849,26.849,0,0,0-4.726-.419c-1.649-.031-3.3-.015-4.947-.039-.291,0-.394.085-.438.367a35.357,35.357,0,0,0-.352,4.236c-.113,3.016-.094,6.033-.111,9.049,0,.344.1.433.424.448,2.262.1,4.524.1,6.786.047,1.532-.036,3.064-.1,4.589-.26C2184.876,245.095,2185.723,244.978,2186.652,244.815Z" transform="translate(-1923.163 -176.224)" fill="#636060"/>
    <path id="Path_21102" data-name="Path 21102" d="M2488.34,231.192c1.678,0,3.289.008,4.9,0a1.768,1.768,0,0,1,1.819,1.28c.577,1.5,1.19,2.984,1.686,4.513,2.391,7.375,4.647,14.793,6.984,22.186q.72,2.275,1.425,4.547c.124.014.116-.073.134-.119,2.322-5.868,4.748-11.695,6.976-17.6a62.15,62.15,0,0,0,2.857-9.839,9.322,9.322,0,0,0-.128-4.948h7.321c0,.011.017.042.007.056a75.753,75.753,0,0,0-5.777,11.212c-3.087,6.933-5.769,14.031-8.524,21.1-.611,1.568-1.236,3.131-1.842,4.7a.4.4,0,0,1-.443.3c-1.355-.013-2.71-.016-4.067,0-.28,0-.359-.1-.426-.349-1.325-5.02-2.722-10.021-4.269-14.978A176.765,176.765,0,0,0,2491,236.5,40.979,40.979,0,0,0,2488.34,231.192Z" transform="translate(-2220.929 -178.265)" fill="#636060"/>
    <path id="Path_21103" data-name="Path 21103" d="M511.136,268.411h-7.81c1.027-1.812,1.073-3.827,1.186-5.818.1-1.721.141-3.445.157-5.17q.05-4.966.043-9.932c0-3.322-.033-6.644-.169-9.964a21.1,21.1,0,0,0-.582-4.741,4.389,4.389,0,0,0-.672-1.474h7.769c-1.132,2.048-1.11,4.312-1.206,6.543-.254,5.953-.134,11.911-.141,17.868,0,2.657.057,5.314.228,7.966a17.715,17.715,0,0,0,.4,2.881A4.544,4.544,0,0,0,511.136,268.411Z" transform="translate(-388.212 -178.38)" fill="#636060"/>
  </g>
</svg>
