<svg xmlns="http://www.w3.org/2000/svg" width="12.307" height="13.669" viewBox="0 0 12.307 13.669">
  <g id="power" transform="translate(-24.405 2)">
    <g id="Group_91" data-name="Group 91" transform="translate(24.405 -2)">
      <path id="Path_209" data-name="Path 209" d="M24.432,8.105A6.145,6.145,0,0,1,26.686,2.74a.91.91,0,0,1,1.49.7h0a.924.924,0,0,1-.352.717,4.338,4.338,0,1,0,5.466,0,.92.92,0,0,1-.349-.714h0a.908.908,0,0,1,1.47-.714,6.152,6.152,0,1,1-9.98,5.382ZM30.556,0a.907.907,0,0,0-.907.907V5.084a.907.907,0,0,0,1.814,0V.907A.907.907,0,0,0,30.556,0Z" transform="translate(-24.405)" fill="#191919"/>
    </g>
  </g>
</svg>
