<?xml version="1.0" standalone="no"?>
<!DOCTYPE svg PUBLIC "-//W3C//DTD SVG 20010904//EN"
 "http://www.w3.org/TR/2001/REC-SVG-20010904/DTD/svg10.dtd">
<svg version="1.0" xmlns="http://www.w3.org/2000/svg"
 width="50.000000pt" height="50.000000pt" viewBox="0 0 50.000000 50.000000"
 preserveAspectRatio="xMidYMid meet">

<g transform="translate(0.000000,50.000000) scale(0.100000,-0.100000)"
fill="#000000" stroke="none">
<path d="M175 481 c-6 -6 -32 -11 -60 -13 l-50 -3 0 -215 0 -215 185 0 185 0
0 215 0 215 -50 3 c-27 2 -54 7 -59 13 -6 5 -40 9 -76 9 -36 0 -70 -4 -75 -9z
m135 -41 l0 -30 -60 0 -60 0 0 30 0 30 60 0 60 0 0 -30z m-140 0 c0 -5 -16
-10 -35 -10 l-35 0 0 -180 0 -180 150 0 150 0 0 180 0 180 -35 0 c-19 0 -35 5
-35 10 0 6 20 10 45 10 l45 0 0 -200 0 -200 -170 0 -170 0 0 200 0 200 45 0
c25 0 45 -4 45 -10z m5 -40 c3 -5 37 -10 75 -10 38 0 72 5 75 10 3 6 17 10 31
10 l24 0 0 -160 0 -160 -130 0 -130 0 0 160 0 160 24 0 c14 0 28 -4 31 -10z"/>
<path d="M160 300 c0 -6 37 -10 90 -10 53 0 90 4 90 10 0 6 -37 10 -90 10 -53
0 -90 -4 -90 -10z"/>
<path d="M160 240 c0 -6 37 -10 90 -10 53 0 90 4 90 10 0 6 -37 10 -90 10 -53
0 -90 -4 -90 -10z"/>
<path d="M160 180 c0 -6 37 -10 90 -10 53 0 90 4 90 10 0 6 -37 10 -90 10 -53
0 -90 -4 -90 -10z"/>
</g>
</svg>
