<svg xmlns="http://www.w3.org/2000/svg" width="24" height="24" viewBox="0 0 24 24">
  <g id="remove_icon" transform="translate(-879 -411)">
    <rect id="Rectangle_6430" data-name="Rectangle 6430" width="24" height="24" transform="translate(879 411)" fill="none"/>
    <path id="Path_36803" data-name="Path 36803" d="M10.485,3.454a8.638,8.638,0,0,0,3.481-.708A9.217,9.217,0,0,0,16.837.8a9.166,9.166,0,0,0,1.944-2.866,8.654,8.654,0,0,0,.7-3.477,8.654,8.654,0,0,0-.7-3.477,9.183,9.183,0,0,0-1.949-2.87,9.168,9.168,0,0,0-2.875-1.949,8.687,8.687,0,0,0-3.481-.7,8.642,8.642,0,0,0-3.463.7,9.168,9.168,0,0,0-2.875,1.949,9.183,9.183,0,0,0-1.949,2.87,8.654,8.654,0,0,0-.7,3.477,8.606,8.606,0,0,0,.708,3.477A9.232,9.232,0,0,0,4.143.8a9.217,9.217,0,0,0,2.87,1.949A8.616,8.616,0,0,0,10.485,3.454ZM7.458-1.731a.755.755,0,0,1-.546-.227.753.753,0,0,1-.231-.56.747.747,0,0,1,.231-.546L9.384-5.537,6.911-8a.758.758,0,0,1-.231-.556.724.724,0,0,1,.231-.551.771.771,0,0,1,.546-.218.735.735,0,0,1,.556.222l2.481,2.472,2.481-2.481a.758.758,0,0,1,.556-.231.75.75,0,0,1,.551.227.75.75,0,0,1,.227.551.778.778,0,0,1-.231.556L11.606-5.537l2.463,2.463a.778.778,0,0,1,.231.556.769.769,0,0,1-.222.56.757.757,0,0,1-.565.227.81.81,0,0,1-.565-.231L10.495-4.426,8.032-1.963A.78.78,0,0,1,7.458-1.731Z" transform="translate(880.515 428.546)" fill="#707070"/>
  </g>
</svg>
