<?xml version="1.0" standalone="no"?>
<!DOCTYPE svg PUBLIC "-//W3C//DTD SVG 20010904//EN"
 "http://www.w3.org/TR/2001/REC-SVG-20010904/DTD/svg10.dtd">
<svg version="1.0" xmlns="http://www.w3.org/2000/svg"
 width="64.000000pt" height="64.000000pt" viewBox="0 0 64.000000 64.000000"
 preserveAspectRatio="xMidYMid meet">

<g transform="translate(0.000000,64.000000) scale(0.100000,-0.100000)"
fill="#000000" stroke="none">
<path d="M240 585 c-8 -9 -29 -15 -55 -15 -27 0 -51 -7 -66 -19 -24 -19 -24
-19 -24 -251 0 -287 -10 -270 161 -270 94 0 114 3 114 15 0 12 -22 15 -117 17
l-118 3 0 235 0 235 44 3 c31 2 49 -2 63 -15 15 -13 36 -18 78 -18 42 0 63 5
78 18 14 13 32 17 63 15 l44 -3 5 -105 c4 -84 8 -105 20 -105 12 0 15 18 15
103 0 97 -2 105 -24 123 -15 13 -39 19 -71 19 -33 0 -50 5 -54 15 -4 11 -22
15 -74 15 -50 0 -73 -4 -82 -15z m140 -29 c0 -17 -22 -26 -60 -26 -38 0 -60 9
-60 26 0 10 15 14 60 14 45 0 60 -4 60 -14z"/>
<path d="M481 216 c-30 -17 -50 -52 -51 -89 0 -38 57 -97 95 -97 56 0 105 49
105 105 0 40 -20 39 -56 -4 -20 -23 -39 -41 -44 -41 -5 0 -18 13 -30 30 -27
37 -17 60 14 31 l22 -20 28 36 c28 34 28 37 11 49 -24 17 -63 17 -94 0z"/>
</g>
</svg>
