<?xml version="1.0" standalone="no"?>
<!DOCTYPE svg PUBLIC "-//W3C//DTD SVG 20010904//EN"
 "http://www.w3.org/TR/2001/REC-SVG-20010904/DTD/svg10.dtd">
<svg version="1.0" xmlns="http://www.w3.org/2000/svg"
 width="24.000000pt" height="24.000000pt" viewBox="0 0 24.000000 24.000000"
 preserveAspectRatio="xMidYMid meet">

<g transform="translate(0.000000,24.000000) scale(0.100000,-0.100000)"
fill="#000000" stroke="none">
<path d="M187 222 c-10 -10 -17 -24 -17 -31 0 -9 -6 -11 -17 -6 -37 16 -64 17
-94 5 -72 -30 -77 -140 -8 -176 93 -48 176 39 134 139 -5 12 -3 17 7 17 8 0
22 8 30 18 14 15 14 19 -2 35 -16 16 -18 16 -33 -1z m18 -21 c3 -5 1 -12 -5
-16 -5 -3 -10 1 -10 9 0 18 6 21 15 7z m-60 -36 c0 -5 -16 -9 -36 -7 -44 4
-69 -17 -69 -58 0 -36 24 -60 60 -60 41 0 62 25 58 69 -2 20 2 36 7 36 6 0 11
-17 13 -39 4 -51 -27 -86 -77 -86 -73 0 -109 84 -59 137 18 19 31 23 63 21 22
-2 40 -7 40 -13z m-25 -24 c0 -5 -10 -11 -22 -13 -17 -2 -23 -10 -23 -28 0
-20 5 -25 25 -25 18 0 26 6 28 23 4 27 22 30 22 3 0 -44 -54 -66 -84 -35 -20
20 -20 48 0 68 17 17 54 22 54 7z m-15 -41 c3 -5 1 -10 -4 -10 -6 0 -11 5 -11
10 0 6 2 10 4 10 3 0 8 -4 11 -10z"/>
</g>
</svg>
