<?xml version="1.0" standalone="no"?>
<!DOCTYPE svg PUBLIC "-//W3C//DTD SVG 20010904//EN"
 "http://www.w3.org/TR/2001/REC-SVG-20010904/DTD/svg10.dtd">
<svg version="1.0" xmlns="http://www.w3.org/2000/svg"
 width="50.000000pt" height="50.000000pt" viewBox="0 0 50.000000 50.000000"
 preserveAspectRatio="xMidYMid meet">

<g transform="translate(0.000000,50.000000) scale(0.100000,-0.100000)"
fill="#000000" stroke="none">
<path d="M184 489 c-47 -13 -58 -34 -60 -108 -1 -47 4 -77 17 -103 31 -61 26
-74 -41 -108 -58 -29 -80 -53 -80 -84 0 -14 22 -16 161 -16 104 0 158 3 154
10 -4 6 -65 10 -151 10 -142 0 -145 0 -134 20 6 12 37 33 68 48 66 31 76 58
46 120 -23 49 -28 139 -9 168 8 12 27 25 42 28 34 8 89 -17 97 -42 10 -32 0
-117 -18 -154 -29 -60 -19 -89 40 -118 29 -14 59 -31 68 -39 18 -15 32 -9 21
9 -3 6 -33 24 -66 40 -66 34 -71 47 -41 108 18 37 27 129 16 164 -11 35 -83
61 -130 47z"/>
<path d="M444 130 c-21 -28 -40 -50 -42 -50 -2 0 -15 9 -29 20 -42 32 -50 23
-13 -15 19 -19 37 -35 40 -35 13 0 100 119 91 124 -5 3 -26 -17 -47 -44z"/>
</g>
</svg>
